<svg xmlns="http://www.w3.org/2000/svg" viewBox="0 0 17.70593 10.8184"><defs><style>.a,.b,.c{fill:none;stroke:#000;stroke-miterlimit:10;}.a{stroke-width:0.57487px;}.b{stroke-width:0.63917px;}.c{stroke-width:0.67967px;}</style></defs><path d="M3.30549,4.95475A2.2793,2.2793,0,1,0,5.86365,7.22547a1.39961,1.39961,0,0,0-.02874-.34492A10.54471,10.54471,0,0,1,3.30549,4.95475Z"/><path class="a" d="M2.52942,4.09244a3.307,3.307,0,1,0,4.369,3.21926A10.35643,10.35643,0,0,1,2.52942,4.09244Z"/><path d="M13.82557,4.95475a2.26583,2.26583,0,1,1-2.55816,2.242,1.39957,1.39957,0,0,1,.02874-.34492A10.34748,10.34748,0,0,0,13.82557,4.95475Z"/><path class="a" d="M14.60165,4.09244a3.307,3.307,0,1,1-4.369,3.21926A10.35651,10.35651,0,0,0,14.60165,4.09244Z"/><path class="a" d="M2.52942,4.09244s2.61565,3.478,6.03611,3.478c2.90309,0,4.59895-2.06952,8.65177-6.23731"/><path class="a" d="M8.50805,5.3859A1.60254,1.60254,0,0,0,6.89842,7.053a.75117.75117,0,0,0,.08623.23,4.20974,4.20974,0,0,0,1.60963.25869,5.93641,5.93641,0,0,0,1.63837-.22995.79586.79586,0,0,0,.02874-.25869A1.74417,1.74417,0,0,0,8.50805,5.3859Z"/><path class="a" d="M5.31753,4.95475a4.65227,4.65227,0,0,1,6.496,0"/><path class="b" d="M4.16779,3.71878a6.39536,6.39536,0,0,1,8.79548,0"/><path class="c" d="M2.98931,2.62653s5.40376-5.14507,11.03747,0"/><polygon points="7.703 9.094 9.485 9.094 8.566 10.531 7.703 9.094"/><path d="M16.58494,1.10313l1.121-.34492L17.476,1.908C17.476,1.93669,17.21729,1.18936,16.58494,1.10313Z"/></svg>